<svg width="18" height="18" viewBox="0 0 18 18" fill="none" xmlns="http://www.w3.org/2000/svg">
<g id="Outline" clip-path="url(#clip0_346_96910)">
<path id="Vector" fill-rule="evenodd" clip-rule="evenodd" d="M3.1875 6.3861C3.1875 3.3396 5.8286 0.937622 9 0.937622C12.1714 0.937622 14.8125 3.3396 14.8125 6.3861C14.8125 9.24446 13.0403 12.6002 10.1811 13.822C9.43046 14.1428 8.56954 14.1428 7.81891 13.822C4.95967 12.6002 3.1875 9.24446 3.1875 6.3861ZM9 2.06262C6.37241 2.06262 4.3125 4.03569 4.3125 6.3861C4.3125 8.88235 5.89157 11.775 8.26099 12.7875C8.72925 12.9876 9.27075 12.9876 9.73901 12.7875C12.1084 11.775 13.6875 8.88235 13.6875 6.3861C13.6875 4.03569 11.6276 2.06262 9 2.06262ZM9 5.81262C8.48223 5.81262 8.0625 6.23236 8.0625 6.75012C8.0625 7.26789 8.48223 7.68762 9 7.68762C9.51777 7.68762 9.9375 7.26789 9.9375 6.75012C9.9375 6.23236 9.51777 5.81262 9 5.81262ZM6.9375 6.75012C6.9375 5.61103 7.86091 4.68762 9 4.68762C10.1391 4.68762 11.0625 5.61103 11.0625 6.75012C11.0625 7.88921 10.1391 8.81262 9 8.81262C7.86091 8.81262 6.9375 7.88921 6.9375 6.75012ZM2.69656 11.2476C2.90508 11.4778 2.88744 11.8336 2.65716 12.0421C2.23139 12.4276 2.0625 12.7967 2.0625 13.1251C2.0625 13.6979 2.60551 14.4037 3.92753 14.9987C5.19675 15.5698 6.98964 15.9376 9 15.9376C11.0104 15.9376 12.8032 15.5698 14.0725 14.9987C15.3945 14.4037 15.9375 13.6979 15.9375 13.1251C15.9375 12.7967 15.7686 12.4276 15.3428 12.0421C15.1126 11.8336 15.0949 11.4778 15.3034 11.2476C15.512 11.0173 15.8677 10.9996 16.098 11.2082C16.6702 11.7263 17.0625 12.3759 17.0625 13.1251C17.0625 14.4163 15.9266 15.398 14.5341 16.0246C13.0889 16.6749 11.1318 17.0626 9 17.0626C6.86823 17.0626 4.91111 16.6749 3.46587 16.0246C2.07342 15.398 0.9375 14.4163 0.9375 13.1251C0.9375 12.3759 1.32979 11.7263 1.90204 11.2082C2.13232 10.9996 2.48804 11.0173 2.69656 11.2476Z" fill="#66727A"/>
</g>
<defs>
<clipPath id="clip0_346_96910">
<rect width="18" height="18" fill="white"/>
</clipPath>
</defs>
</svg>
