<svg width="18" height="18" viewBox="0 0 18 18" fill="none" xmlns="http://www.w3.org/2000/svg">
<g id="Outline">
<g id="Union">
<path fill-rule="evenodd" clip-rule="evenodd" d="M5.00408 1.62329C4.35746 1.62327 3.81823 1.62325 3.39017 1.68081C2.93834 1.74155 2.53042 1.87518 2.20261 2.20298C1.87481 2.53078 1.74119 2.93871 1.68044 3.39053C1.62289 3.81859 1.62291 4.3578 1.62293 5.00443V5.0793C1.62291 5.72593 1.62289 6.26515 1.68044 6.69321C1.74119 7.14504 1.87481 7.55296 2.20261 7.88077C2.53042 8.20857 2.93834 8.3422 3.39017 8.40294C3.81823 8.46049 4.35744 8.46048 5.00406 8.46045H5.07893C5.72556 8.46048 6.26479 8.46049 6.69285 8.40294C7.14467 8.3422 7.5526 8.20857 7.8804 7.88077C8.2082 7.55296 8.34183 7.14504 8.40258 6.69321C8.46013 6.26515 8.46011 5.72594 8.46009 5.07932V5.00445C8.46011 4.35782 8.46013 3.81859 8.40258 3.39053C8.34183 2.93871 8.2082 2.53078 7.8804 2.20298C7.5526 1.87518 7.14467 1.74155 6.69285 1.68081C6.26479 1.62325 5.72558 1.62327 5.07895 1.62329H5.00408ZM2.96597 2.96634C3.05976 2.87255 3.2019 2.79538 3.53402 2.75073C3.88166 2.70399 4.34771 2.70284 5.04151 2.70284C5.73531 2.70284 6.20136 2.70399 6.549 2.75073C6.88111 2.79538 7.02325 2.87255 7.11704 2.96634C7.21083 3.06013 7.288 3.20227 7.33265 3.53438C7.37939 3.88202 7.38054 4.34807 7.38054 5.04187C7.38054 5.73567 7.37939 6.20172 7.33265 6.54937C7.288 6.88148 7.21083 7.02362 7.11704 7.11741C7.02325 7.2112 6.88111 7.28836 6.549 7.33302C6.20136 7.37976 5.73531 7.3809 5.04151 7.3809C4.34771 7.3809 3.88166 7.37976 3.53402 7.33302C3.2019 7.28836 3.05976 7.2112 2.96597 7.11741C2.87218 7.02362 2.79502 6.88148 2.75036 6.54937C2.70363 6.20172 2.70248 5.73567 2.70248 5.04187C2.70248 4.34807 2.70363 3.88202 2.75036 3.53438C2.79502 3.20227 2.87218 3.06013 2.96597 2.96634Z" fill="#232930"/>
<path d="M13.498 2.88277C13.498 2.58466 13.2563 2.34299 12.9582 2.34299C12.6601 2.34299 12.4184 2.58466 12.4184 2.88277V4.5021H10.7991C10.501 4.5021 10.2593 4.74376 10.2593 5.04187C10.2593 5.33998 10.501 5.58165 10.7991 5.58165H12.4184V7.20098C12.4184 7.49909 12.6601 7.74075 12.9582 7.74075C13.2563 7.74075 13.498 7.49909 13.498 7.20098V5.58165H15.1173C15.4154 5.58165 15.6571 5.33998 15.6571 5.04187C15.6571 4.74376 15.4154 4.5021 15.1173 4.5021H13.498V2.88277Z" fill="#232930"/>
<path fill-rule="evenodd" clip-rule="evenodd" d="M12.9208 9.54H12.9956C13.6423 9.53998 14.1815 9.53997 14.6096 9.59752C15.0614 9.65826 15.4693 9.79189 15.7971 10.1197C16.1249 10.4475 16.2585 10.8554 16.3193 11.3072C16.3768 11.7353 16.3768 12.2745 16.3768 12.9211V12.996C16.3768 13.6426 16.3768 14.1819 16.3193 14.6099C16.2585 15.0617 16.1249 15.4697 15.7971 15.7975C15.4693 16.1253 15.0614 16.2589 14.6096 16.3197C14.1815 16.3772 13.6423 16.3772 12.9957 16.3772H12.9208C12.2742 16.3772 11.7349 16.3772 11.3069 16.3197C10.8551 16.2589 10.4471 16.1253 10.1193 15.7975C9.79152 15.4697 9.6579 15.0617 9.59715 14.6099C9.5396 14.1819 9.53962 13.6426 9.53964 12.996V12.9212C9.53962 12.2745 9.5396 11.7353 9.59715 11.3072C9.6579 10.8554 9.79152 10.4475 10.1193 10.1197C10.4471 9.79189 10.8551 9.65826 11.3069 9.59752C11.7349 9.53997 12.2742 9.53998 12.9208 9.54ZM11.4507 10.6674C11.1186 10.7121 10.9765 10.7893 10.8827 10.8831C10.7889 10.9768 10.7117 11.119 10.6671 11.4511C10.6203 11.7987 10.6192 12.2648 10.6192 12.9586C10.6192 13.6524 10.6203 14.1184 10.6671 14.4661C10.7117 14.7982 10.7889 14.9403 10.8827 15.0341C10.9765 15.1279 11.1186 15.2051 11.4507 15.2497C11.7984 15.2965 12.2644 15.2976 12.9582 15.2976C13.652 15.2976 14.1181 15.2965 14.4657 15.2497C14.7978 15.2051 14.94 15.1279 15.0338 15.0341C15.1275 14.9403 15.2047 14.7982 15.2494 14.4661C15.2961 14.1184 15.2972 13.6524 15.2972 12.9586C15.2972 12.2648 15.2961 11.7987 15.2494 11.4511C15.2047 11.119 15.1275 10.9768 15.0338 10.8831C14.94 10.7893 14.7978 10.7121 14.4657 10.6674C14.1181 10.6207 13.652 10.6196 12.9582 10.6196C12.2644 10.6196 11.7984 10.6207 11.4507 10.6674Z" fill="#232930"/>
<path fill-rule="evenodd" clip-rule="evenodd" d="M5.00408 9.54C4.35745 9.53998 3.81823 9.53997 3.39017 9.59752C2.93834 9.65826 2.53042 9.79189 2.20261 10.1197C1.87481 10.4475 1.74119 10.8554 1.68044 11.3072C1.62289 11.7353 1.62291 12.2745 1.62293 12.9211V12.996C1.62291 13.6426 1.62289 14.1819 1.68044 14.6099C1.74119 15.0617 1.87481 15.4697 2.20261 15.7975C2.53042 16.1253 2.93834 16.2589 3.39017 16.3197C3.81823 16.3772 4.35744 16.3772 5.00406 16.3772H5.07893C5.72556 16.3772 6.26479 16.3772 6.69285 16.3197C7.14467 16.2589 7.5526 16.1253 7.8804 15.7975C8.2082 15.4697 8.34183 15.0617 8.40258 14.6099C8.46013 14.1819 8.46011 13.6427 8.46009 12.996V12.9212C8.46011 12.2745 8.46013 11.7353 8.40258 11.3072C8.34183 10.8554 8.2082 10.4475 7.8804 10.1197C7.5526 9.79189 7.14467 9.65826 6.69285 9.59752C6.26478 9.53997 5.72557 9.53998 5.07893 9.54H5.00408ZM2.96597 10.8831C3.05976 10.7893 3.2019 10.7121 3.53402 10.6674C3.88166 10.6207 4.34771 10.6196 5.04151 10.6196C5.73531 10.6196 6.20136 10.6207 6.549 10.6674C6.88111 10.7121 7.02325 10.7893 7.11704 10.8831C7.21083 10.9768 7.288 11.119 7.33265 11.4511C7.37939 11.7987 7.38054 12.2648 7.38054 12.9586C7.38054 13.6524 7.37939 14.1184 7.33265 14.4661C7.288 14.7982 7.21083 14.9403 7.11704 15.0341C7.02325 15.1279 6.88111 15.2051 6.549 15.2497C6.20136 15.2965 5.73531 15.2976 5.04151 15.2976C4.34771 15.2976 3.88166 15.2965 3.53402 15.2497C3.2019 15.2051 3.05976 15.1279 2.96597 15.0341C2.87218 14.9403 2.79502 14.7982 2.75036 14.4661C2.70363 14.1184 2.70248 13.6524 2.70248 12.9586C2.70248 12.2648 2.70363 11.7987 2.75036 11.4511C2.79502 11.119 2.87218 10.9768 2.96597 10.8831Z" fill="#232930"/>
</g>
</g>
</svg>
