<svg width="18" height="18" viewBox="0 0 18 18" fill="none" xmlns="http://www.w3.org/2000/svg">
<g id="Outline" clip-path="url(#clip0_346_96914)">
<path id="Vector" fill-rule="evenodd" clip-rule="evenodd" d="M3.9375 5.77535C3.9375 3.07674 6.23157 0.937622 9 0.937622C11.706 0.937622 13.9587 2.98128 14.059 5.59353L14.4174 5.71298C14.7647 5.82874 15.0691 5.93019 15.3107 6.04255C15.5718 6.16402 15.811 6.32048 15.994 6.57428C16.1769 6.82808 16.2497 7.10456 16.2823 7.39068C16.3125 7.65534 16.3125 7.97623 16.3125 8.34235V12.6535C16.3125 13.1106 16.3125 13.5005 16.2771 13.8133C16.2398 14.1424 16.1563 14.4657 15.9303 14.7416C15.8005 14.9 15.643 15.0335 15.4654 15.1355C15.1561 15.3131 14.8234 15.3422 14.4927 15.3249C14.1783 15.3085 13.7937 15.2443 13.3428 15.1692L13.3116 15.164C12.342 15.0024 11.9513 14.9413 11.5705 14.9732C11.4312 14.9848 11.2928 15.0056 11.1563 15.0355C10.783 15.117 10.4241 15.292 9.53703 15.7355C9.50618 15.7509 9.47568 15.7662 9.44552 15.7813C8.40853 16.3 7.76964 16.6195 7.08023 16.7194C6.87288 16.7494 6.66361 16.7643 6.45409 16.7639C5.75751 16.7625 5.08496 16.5382 3.99402 16.1744C3.96246 16.1639 3.93055 16.1532 3.89829 16.1425L3.61061 16.0466L3.58263 16.0373C3.2353 15.9215 2.93087 15.82 2.68935 15.7077C2.42825 15.5862 2.18896 15.4298 2.00603 15.176C1.8231 14.9222 1.75034 14.6457 1.71768 14.3596C1.68746 14.0949 1.68748 13.774 1.6875 13.4079L1.6875 9.64305C1.68748 9.05346 1.68746 8.55647 1.73797 8.16723C1.79069 7.76094 1.90989 7.3637 2.23697 7.06497C2.33311 6.97715 2.4391 6.90076 2.55281 6.83732C2.93965 6.6215 3.3542 6.63403 3.75631 6.71249C3.83788 6.72841 3.92332 6.748 4.01264 6.77077C3.96308 6.4364 3.9375 6.10305 3.9375 5.77535ZM4.31152 8.03209C3.99054 7.92857 3.74418 7.85634 3.54085 7.81667C3.24449 7.75884 3.14734 7.79387 3.10094 7.81976C3.06304 7.84091 3.02771 7.86637 2.99566 7.89564C2.95642 7.93147 2.89247 8.01256 2.85361 8.312C2.81363 8.62013 2.8125 9.04324 2.8125 9.68112V13.3784C2.8125 13.7827 2.81335 14.0387 2.83542 14.232C2.85584 14.4108 2.88926 14.4773 2.91868 14.5182C2.9481 14.559 3.00062 14.6117 3.16387 14.6877C3.34023 14.7697 3.58282 14.8515 3.96637 14.9793L4.25404 15.0752C5.47172 15.4811 5.96317 15.6379 6.45623 15.6389C6.61108 15.6392 6.76576 15.6282 6.91902 15.606C7.40687 15.5353 7.8757 15.3084 9.03391 14.7293C9.05737 14.7175 9.08056 14.7059 9.1035 14.6945C9.899 14.2966 10.389 14.0515 10.9162 13.9364C11.101 13.896 11.2883 13.8679 11.4767 13.8521C12.0145 13.8071 12.5508 13.8965 13.4209 14.0417C13.4458 14.0458 13.4711 14.05 13.4966 14.0543C13.9873 14.1361 14.3084 14.1887 14.5514 14.2014C14.7854 14.2137 14.8658 14.1825 14.9051 14.1599C14.9643 14.1259 15.0168 14.0814 15.0601 14.0286C15.0889 13.9935 15.1328 13.9193 15.1592 13.6866C15.1867 13.4447 15.1875 13.1193 15.1875 12.6219V8.37183C15.1875 7.96753 15.1867 7.71154 15.1646 7.51829C15.1442 7.3394 15.1107 7.2729 15.0813 7.23208C15.0519 7.19126 14.9994 7.13852 14.8361 7.06258C14.6598 6.98054 14.4172 6.89878 14.0336 6.77093L13.9895 6.75622C13.8469 7.73226 13.4997 8.71762 12.988 9.59708C12.3036 10.7732 11.3023 11.7975 10.0478 12.3448C9.38202 12.6352 8.61798 12.6352 7.95218 12.3448C6.6977 11.7975 5.69639 10.7732 5.01205 9.59708C4.72403 9.10212 4.48815 8.57361 4.31152 8.03209ZM9 2.06262C6.79787 2.06262 5.0625 3.75168 5.0625 5.77535C5.0625 6.83843 5.39058 8.01076 5.98441 9.03128C6.5784 10.0521 7.41565 10.8833 8.40202 11.3136C8.78098 11.479 9.21902 11.479 9.59798 11.3136C10.5844 10.8833 11.4216 10.0521 12.0156 9.03128C12.6094 8.01076 12.9375 6.83843 12.9375 5.77535C12.9375 3.75168 11.2021 2.06262 9 2.06262ZM9 5.06262C8.48223 5.06262 8.0625 5.48236 8.0625 6.00012C8.0625 6.51789 8.48223 6.93762 9 6.93762C9.51777 6.93762 9.9375 6.51789 9.9375 6.00012C9.9375 5.48236 9.51777 5.06262 9 5.06262ZM6.9375 6.00012C6.9375 4.86103 7.86091 3.93762 9 3.93762C10.1391 3.93762 11.0625 4.86103 11.0625 6.00012C11.0625 7.13921 10.1391 8.06262 9 8.06262C7.86091 8.06262 6.9375 7.13921 6.9375 6.00012Z" fill="#66727A"/>
</g>
<defs>
<clipPath id="clip0_346_96914">
<rect width="18" height="18" fill="white"/>
</clipPath>
</defs>
</svg>
