<svg width="40" height="41" viewBox="0 0 40 41" fill="none" xmlns="http://www.w3.org/2000/svg">
<path d="M0 4.5C0 2.29086 1.79086 0.5 4 0.5H36C38.2091 0.5 40 2.29086 40 4.5V36.5C40 38.7091 38.2091 40.5 36 40.5H4C1.79086 40.5 0 38.7091 0 36.5V4.5Z" fill="#EFF1F3"/>
<path d="M24.0834 15.2501C24.0834 17.5052 22.2552 19.3334 20 19.3334C17.7449 19.3334 15.9167 17.5052 15.9167 15.2501C15.9167 12.9949 17.7449 11.1667 20 11.1667C22.2552 11.1667 24.0834 12.9949 24.0834 15.2501Z" fill="#232930"/>
<path opacity="0.4" d="M28.75 15.2499C28.75 16.8607 27.4442 18.1666 25.8334 18.1666C24.2225 18.1666 22.9167 16.8607 22.9167 15.2499C22.9167 13.6391 24.2225 12.3333 25.8334 12.3333C27.4442 12.3333 28.75 13.6391 28.75 15.2499Z" fill="#232930"/>
<path opacity="0.4" d="M11.25 15.2499C11.25 16.8607 12.5558 18.1666 14.1666 18.1666C15.7775 18.1666 17.0833 16.8607 17.0833 15.2499C17.0833 13.6391 15.7775 12.3333 14.1666 12.3333C12.5558 12.3333 11.25 13.6391 11.25 15.2499Z" fill="#232930"/>
<path d="M27 25.7501C27 28.0052 23.866 29.8334 20 29.8334C16.134 29.8334 13 28.0052 13 25.7501C13 23.4949 16.134 21.6667 20 21.6667C23.866 21.6667 27 23.4949 27 25.7501Z" fill="#232930"/>
<path opacity="0.4" d="M31.6666 25.7499C31.6666 27.3607 29.5773 28.6666 27 28.6666C24.4227 28.6666 22.3333 27.3607 22.3333 25.7499C22.3333 24.1391 24.4227 22.8333 27 22.8333C29.5773 22.8333 31.6666 24.1391 31.6666 25.7499Z" fill="#232930"/>
<path opacity="0.4" d="M8.33335 25.7499C8.33335 27.3607 10.4227 28.6666 13 28.6666C15.5773 28.6666 17.6667 27.3607 17.6667 25.7499C17.6667 24.1391 15.5773 22.8333 13 22.8333C10.4227 22.8333 8.33335 24.1391 8.33335 25.7499Z" fill="#232930"/>
</svg>
