<svg width="18" height="18" viewBox="0 0 18 18" fill="none" xmlns="http://www.w3.org/2000/svg">
<g id="Outline">
<path id="Vector" fill-rule="evenodd" clip-rule="evenodd" d="M9.32865 2.08381C9.21986 2.04886 9.10089 2.05733 8.99983 2.10603C8.88919 2.15935 8.81607 2.2524 8.7898 2.35365L8.43302 3.72905C8.30825 4.21004 8.12659 4.67398 7.89261 5.11199C7.52937 5.792 6.97974 6.315 6.46985 6.75438L5.3908 7.68423C5.22356 7.82834 5.13555 8.04437 5.15461 8.26484L5.76374 15.3093C5.79451 15.6652 6.09183 15.9375 6.44726 15.9375H9.93373C12.286 15.9375 14.2678 14.3008 14.6479 12.1029L15.1771 9.04304C15.2499 8.62193 14.9261 8.23815 14.5011 8.23815H10.6153C9.88242 8.23815 9.32579 7.58067 9.44411 6.85854L9.94111 3.82512C10.0092 3.4096 9.98975 2.98442 9.88403 2.57688C9.83038 2.37007 9.66719 2.19256 9.43738 2.11874L9.32865 2.08381L9.5007 1.54826L9.32865 2.08381ZM8.51147 1.09256C8.87341 0.918147 9.29044 0.889908 9.67274 1.01272L9.78146 1.04765L9.60942 1.58319L9.78147 1.04765C10.3642 1.23486 10.8189 1.70039 10.973 2.2944C11.118 2.85358 11.1447 3.43692 11.0513 4.00701L10.5543 7.04043C10.5479 7.07925 10.5779 7.11315 10.6153 7.11315H14.5011C15.6256 7.11315 16.4771 8.12738 16.2856 9.23475L15.7565 12.2946C15.2781 15.0608 12.8034 17.0625 9.93373 17.0625H6.44726C5.50702 17.0625 4.72389 16.3427 4.64292 15.4063L4.0338 8.36176C3.98362 7.78147 4.21516 7.21223 4.65641 6.832L5.73547 5.90215C6.22688 5.47869 6.64053 5.06825 6.90031 4.58193C7.09274 4.22169 7.24179 3.8408 7.34406 3.44657L7.70084 2.07118C7.81277 1.6397 8.11248 1.28482 8.51147 1.09256ZM2.22575 7.11367C2.5267 7.10069 2.78446 7.32708 2.81041 7.62719L3.53911 16.0546C3.58592 16.5959 3.15951 17.0625 2.61503 17.0625C2.10217 17.0625 1.6875 16.6464 1.6875 16.1346V7.67565C1.6875 7.37442 1.9248 7.12666 2.22575 7.11367Z" fill="#232930"/>
</g>
</svg>
