<svg width="18" height="18" viewBox="0 0 18 18" fill="none" xmlns="http://www.w3.org/2000/svg">
<g id="Outline" clip-path="url(#clip0_346_87564)">
<path id="Vector" fill-rule="evenodd" clip-rule="evenodd" d="M9 2.0625C5.16852 2.0625 2.0625 5.16852 2.0625 9C2.0625 10.1108 2.32314 11.1591 2.7861 12.0886C2.97191 12.4616 3.04346 12.9077 2.92622 13.3459L2.47952 15.0154C2.39748 15.322 2.678 15.6025 2.98462 15.5205L4.65415 15.0738C5.0923 14.9565 5.53838 15.0281 5.91143 15.2139C6.8409 15.6769 7.88921 15.9375 9 15.9375C12.8315 15.9375 15.9375 12.8315 15.9375 9C15.9375 5.16852 12.8315 2.0625 9 2.0625ZM0.9375 9C0.9375 4.5472 4.5472 0.9375 9 0.9375C13.4528 0.9375 17.0625 4.5472 17.0625 9C17.0625 13.4528 13.4528 17.0625 9 17.0625C7.71127 17.0625 6.49164 16.7597 5.40986 16.2209C5.24843 16.1405 5.0836 16.1234 4.94493 16.1605L3.2754 16.6073C2.13253 16.913 1.08696 15.8675 1.39275 14.7246L1.83945 13.0551C1.87656 12.9164 1.8595 12.7516 1.77909 12.5901C1.24028 11.5084 0.9375 10.2887 0.9375 9ZM11.454 5.8666C12.3803 6.21294 12.9375 7.15423 12.9375 8.3313C12.9375 9.01806 12.6115 9.66155 12.2213 10.1959C11.8245 10.7394 11.3141 11.234 10.8431 11.6347C10.8196 11.6547 10.7964 11.6745 10.7733 11.6942C10.2206 12.1655 9.76113 12.5573 9 12.5573C8.23888 12.5573 7.77945 12.1655 7.22673 11.6942C7.20364 11.6745 7.18039 11.6547 7.15695 11.6347C6.68586 11.234 6.17552 10.7394 5.77869 10.1959C5.38849 9.66155 5.0625 9.01806 5.0625 8.33131C5.0625 7.15423 5.61975 6.21294 6.54598 5.86661C7.32815 5.57414 8.21812 5.76405 9 6.3717C9.78187 5.76405 10.6719 5.57414 11.454 5.8666ZM11.06 6.92035C10.6721 6.77531 10.0537 6.85272 9.40192 7.51838C9.29611 7.62645 9.15124 7.68735 9 7.68735C8.84876 7.68735 8.70389 7.62645 8.59808 7.51838C7.94631 6.85272 7.32789 6.77531 6.94 6.92035C6.55841 7.06303 6.1875 7.50051 6.1875 8.33131C6.1875 8.67086 6.35607 9.07895 6.68726 9.53251C7.01182 9.977 7.44969 10.4068 7.88591 10.7779C8.53708 11.3318 8.68949 11.4323 9 11.4323C9.31052 11.4323 9.46293 11.3318 10.1141 10.7779C10.5503 10.4068 10.9882 9.97701 11.3127 9.53252C11.6439 9.07896 11.8125 8.67087 11.8125 8.3313C11.8125 7.5005 11.4416 7.06303 11.06 6.92035Z" fill="#66727A"/>
</g>
<defs>
<clipPath id="clip0_346_87564">
<rect width="18" height="18" fill="white"/>
</clipPath>
</defs>
</svg>
