<svg width="18" height="18" viewBox="0 0 18 18" fill="none" xmlns="http://www.w3.org/2000/svg">
<g id="Outline">
<g id="Vector">
<path fill-rule="evenodd" clip-rule="evenodd" d="M6.75 4.68762C5.61091 4.68762 4.6875 5.61104 4.6875 6.75012C4.6875 7.88921 5.61091 8.81262 6.75 8.81262C7.88909 8.81262 8.8125 7.88921 8.8125 6.75012C8.8125 5.61104 7.88909 4.68762 6.75 4.68762ZM5.8125 6.75012C5.8125 6.23236 6.23223 5.81262 6.75 5.81262C7.26777 5.81262 7.6875 6.23236 7.6875 6.75012C7.6875 7.26789 7.26777 7.68762 6.75 7.68762C6.23223 7.68762 5.8125 7.26789 5.8125 6.75012Z" fill="#66727A"/>
<path fill-rule="evenodd" clip-rule="evenodd" d="M6.75 9.18762C5.85318 9.18762 5.01346 9.36818 4.37712 9.68635C3.77443 9.98769 3.1875 10.5081 3.1875 11.2501L3.18741 11.297C3.18625 11.6798 3.18432 12.3243 3.79517 12.7664C4.07864 12.9716 4.45267 13.1025 4.91602 13.1859C5.38365 13.27 5.98291 13.3126 6.75 13.3126C7.51709 13.3126 8.11635 13.27 8.58398 13.1859C9.04733 13.1025 9.42136 12.9716 9.70483 12.7664C10.3157 12.3243 10.3137 11.6798 10.3126 11.297L10.3125 11.2501C10.3125 10.5081 9.72557 9.98769 9.12288 9.68635C8.48654 9.36818 7.64682 9.18762 6.75 9.18762ZM4.3125 11.2501C4.3125 11.1637 4.39714 10.9341 4.88024 10.6926C5.32969 10.4679 5.98996 10.3126 6.75 10.3126C7.51004 10.3126 8.17031 10.4679 8.61976 10.6926C9.10286 10.9341 9.1875 11.1637 9.1875 11.2501C9.1875 11.7035 9.15864 11.773 9.04517 11.8551C8.95364 11.9214 8.76517 12.0102 8.38477 12.0786C8.00865 12.1463 7.48291 12.1876 6.75 12.1876C6.01709 12.1876 5.49135 12.1463 5.11523 12.0786C4.73483 12.0102 4.54636 11.9214 4.45483 11.8551C4.34137 11.773 4.3125 11.7035 4.3125 11.2501Z" fill="#66727A"/>
<path d="M14.25 9.56262C14.5607 9.56262 14.8125 9.31078 14.8125 9.00012C14.8125 8.68946 14.5607 8.43762 14.25 8.43762H11.25C10.9393 8.43762 10.6875 8.68946 10.6875 9.00012C10.6875 9.31078 10.9393 9.56262 11.25 9.56262H14.25Z" fill="#66727A"/>
<path d="M14.8125 6.75012C14.8125 7.06078 14.5607 7.31262 14.25 7.31262H10.5C10.1893 7.31262 9.9375 7.06078 9.9375 6.75012C9.9375 6.43946 10.1893 6.18762 10.5 6.18762H14.25C14.5607 6.18762 14.8125 6.43946 14.8125 6.75012Z" fill="#66727A"/>
<path d="M14.25 11.8126C14.5607 11.8126 14.8125 11.5608 14.8125 11.2501C14.8125 10.9395 14.5607 10.6876 14.25 10.6876H12C11.6893 10.6876 11.4375 10.9395 11.4375 11.2501C11.4375 11.5608 11.6893 11.8126 12 11.8126H14.25Z" fill="#66727A"/>
<path fill-rule="evenodd" clip-rule="evenodd" d="M7.45769 2.43762H10.5423C11.9206 2.43761 13.0124 2.4376 13.8668 2.55247C14.7461 2.67069 15.4578 2.91978 16.0191 3.48106C16.5803 4.04233 16.8294 4.75404 16.9476 5.63336C17.0625 6.48776 17.0625 7.57948 17.0625 8.95778V9.04243C17.0625 10.4207 17.0625 11.5125 16.9476 12.3669C16.8294 13.2462 16.5803 13.9579 16.0191 14.5192C15.4578 15.0805 14.7461 15.3295 13.8668 15.4478C13.0124 15.5626 11.9206 15.5626 10.5423 15.5626H7.45769C6.07939 15.5626 4.98764 15.5626 4.13323 15.4478C3.25392 15.3295 2.54221 15.0805 1.98093 14.5192C1.41966 13.9579 1.17057 13.2462 1.05235 12.3669C0.937479 11.5125 0.937489 10.4208 0.9375 9.04245V8.95781C0.937489 7.5795 0.937479 6.48776 1.05235 5.63336C1.17057 4.75404 1.41966 4.04233 1.98093 3.48106C2.54221 2.91978 3.25392 2.67069 4.13323 2.55247C4.98764 2.4376 6.07937 2.43761 7.45769 2.43762ZM4.28314 3.66744C3.52857 3.76889 3.09384 3.95914 2.77643 4.27655C2.45902 4.59396 2.26877 5.02869 2.16732 5.78326C2.0637 6.55401 2.0625 7.57001 2.0625 9.00012C2.0625 10.4302 2.0637 11.4462 2.16732 12.217C2.26877 12.9716 2.45902 13.4063 2.77643 13.7237C3.09384 14.0411 3.52857 14.2314 4.28314 14.3328C5.05389 14.4364 6.06989 14.4376 7.5 14.4376H10.5C11.9301 14.4376 12.9461 14.4364 13.7169 14.3328C14.4714 14.2314 14.9062 14.0411 15.2236 13.7237C15.541 13.4063 15.7312 12.9716 15.8327 12.217C15.9363 11.4462 15.9375 10.4302 15.9375 9.00012C15.9375 7.57001 15.9363 6.55401 15.8327 5.78326C15.7312 5.02869 15.541 4.59396 15.2236 4.27655C14.9062 3.95914 14.4714 3.76889 13.7169 3.66744C12.9461 3.56382 11.9301 3.56262 10.5 3.56262H7.5C6.06989 3.56262 5.05389 3.56382 4.28314 3.66744Z" fill="#66727A"/>
</g>
</g>
</svg>
