<svg width="18" height="18" viewBox="0 0 18 18" fill="none" xmlns="http://www.w3.org/2000/svg">
<g id="Outline">
<g clip-path="url(#clip0_346_96902)">
<path id="Vector (Stroke)" fill-rule="evenodd" clip-rule="evenodd" d="M11.211 0.937623H12.789C13.4629 0.937601 14.0248 0.937582 14.4709 0.997557C14.9417 1.06086 15.3668 1.20011 15.7084 1.54172C16.05 1.88332 16.1893 2.30842 16.2526 2.77926C16.3125 3.22535 16.3125 3.78727 16.3125 4.46113V15.9376H16.5C16.8107 15.9376 17.0625 16.1895 17.0625 16.5001C17.0625 16.8108 16.8107 17.0626 16.5 17.0626H1.5C1.18934 17.0626 0.9375 16.8108 0.9375 16.5001C0.9375 16.1895 1.18934 15.9376 1.5 15.9376H1.6875L1.6875 6.71112C1.68748 6.03726 1.68746 5.47535 1.74743 5.02926C1.81074 4.55842 1.94999 4.13332 2.29159 3.79172C2.63319 3.45011 3.0583 3.31086 3.52914 3.24756C3.97523 3.18758 4.53714 3.1876 5.211 3.18762L7.70849 3.18762C7.74708 2.53199 7.86795 1.96536 8.29159 1.54172C8.63319 1.20011 9.05829 1.06086 9.52914 0.997557C9.97523 0.937582 10.5371 0.937601 11.211 0.937623ZM8.25513 4.31262C8.25416 4.31262 8.2532 4.31262 8.25223 4.31262C8.25149 4.31262 8.25074 4.31262 8.25 4.31262H5.25C4.52699 4.31262 4.04132 4.31382 3.67904 4.36252C3.33295 4.40906 3.18482 4.48947 3.08709 4.58721C2.98935 4.68495 2.90893 4.83307 2.8624 5.17917C2.81369 5.54145 2.8125 6.02712 2.8125 6.75012V15.9376H6.1875V14.2501C6.1875 13.9395 6.43934 13.6876 6.75 13.6876C7.06066 13.6876 7.3125 13.9395 7.3125 14.2501V15.9376H10.6875V6.75012C10.6875 6.02712 10.6863 5.54145 10.6376 5.17917C10.5911 4.83307 10.5107 4.68495 10.4129 4.58721C10.3152 4.48947 10.1671 4.40906 9.82096 4.36252C9.45954 4.31393 8.97531 4.31263 8.25513 4.31262ZM11.8125 15.9376L11.8125 6.71113C11.8125 6.03727 11.8125 5.47535 11.7526 5.02926C11.6893 4.55842 11.55 4.13332 11.2084 3.79172C10.8668 3.45011 10.4417 3.31086 9.97086 3.24756C9.65184 3.20467 9.27359 3.19246 8.83751 3.18899C8.87514 2.66426 8.9577 2.46659 9.08709 2.33721C9.18482 2.23947 9.33295 2.15906 9.67904 2.11253C10.0413 2.06382 10.527 2.06262 11.25 2.06262H12.75C13.473 2.06262 13.9587 2.06382 14.321 2.11253C14.6671 2.15906 14.8152 2.23947 14.9129 2.33721C15.0107 2.43495 15.0911 2.58307 15.1376 2.92917C15.1863 3.29145 15.1875 3.77712 15.1875 4.50012V15.9376H11.8125ZM3.9375 6.00012C3.9375 5.68946 4.18934 5.43762 4.5 5.43762H9C9.31066 5.43762 9.5625 5.68946 9.5625 6.00012C9.5625 6.31078 9.31066 6.56262 9 6.56262H4.5C4.18934 6.56262 3.9375 6.31078 3.9375 6.00012ZM3.9375 8.25012C3.9375 7.93946 4.18934 7.68762 4.5 7.68762H9C9.31066 7.68762 9.5625 7.93946 9.5625 8.25012C9.5625 8.56078 9.31066 8.81262 9 8.81262H4.5C4.18934 8.81262 3.9375 8.56078 3.9375 8.25012ZM3.9375 10.5001C3.9375 10.1895 4.18934 9.93762 4.5 9.93762H9C9.31066 9.93762 9.5625 10.1895 9.5625 10.5001C9.5625 10.8108 9.31066 11.0626 9 11.0626H4.5C4.18934 11.0626 3.9375 10.8108 3.9375 10.5001Z" fill="#66727A"/>
</g>
</g>
<defs>
<clipPath id="clip0_346_96902">
<rect y="0.00012207" width="18" height="18" rx="3" fill="white"/>
</clipPath>
</defs>
</svg>
