<svg width="18" height="18" viewBox="0 0 18 18" fill="none" xmlns="http://www.w3.org/2000/svg">
<g id="Outline">
<g clip-path="url(#clip0_337_27357)">
<g id="Vector">
<path d="M9 0.937607H8.95697C7.22567 0.937597 5.86889 0.93759 4.81028 1.07992C3.72673 1.2256 2.87171 1.5296 2.2006 2.20071C1.5295 2.87182 1.22549 3.72683 1.07981 4.81039C0.937483 5.869 0.937491 7.22578 0.9375 8.95707V9.04314C0.937491 10.7744 0.937483 12.1312 1.07981 13.1898C1.22549 14.2734 1.5295 15.1284 2.2006 15.7995C2.87171 16.4706 3.72673 16.7746 4.81028 16.9203C5.8689 17.0626 7.22567 17.0626 8.95697 17.0626H9.04303C10.7743 17.0626 12.1311 17.0626 13.1897 16.9203C14.2733 16.7746 15.1283 16.4706 15.7994 15.7995C16.4705 15.1284 16.7745 14.2734 16.9202 13.1898C17.0625 12.1312 17.0625 10.7744 17.0625 9.04314V9.00011C17.0625 8.68945 16.8107 8.43761 16.5 8.43761C16.1893 8.43761 15.9375 8.68945 15.9375 9.00011C15.9375 10.7838 15.9363 12.0649 15.8052 13.0399C15.6763 13.9987 15.4311 14.5768 15.0039 15.004C14.5767 15.4313 13.9986 15.6764 13.0398 15.8053C12.0648 15.9364 10.7837 15.9376 9 15.9376C7.21633 15.9376 5.93517 15.9364 4.96018 15.8053C4.00138 15.6764 3.42334 15.4313 2.9961 15.004C2.56886 14.5768 2.32369 13.9987 2.19478 13.0399C2.06369 12.0649 2.0625 10.7838 2.0625 9.00011C2.0625 7.21644 2.06369 5.93527 2.19478 4.96029C2.32369 4.00149 2.56886 3.42345 2.9961 2.9962C3.42334 2.56896 4.00138 2.32379 4.96018 2.19489C5.93517 2.0638 7.21633 2.06261 9 2.06261C9.31066 2.06261 9.5625 1.81077 9.5625 1.50011C9.5625 1.18945 9.31066 0.937607 9 0.937607Z" fill="#0070D2"/>
<path d="M9.35225 7.85236C9.13258 8.07203 9.13258 8.42818 9.35225 8.64785C9.57192 8.86752 9.92808 8.86752 10.1477 8.64785L15.9375 2.8581V5.50792C15.9375 5.81858 16.1893 6.07042 16.5 6.07042C16.8107 6.07042 17.0625 5.81858 17.0625 5.50792V1.50011C17.0625 1.18945 16.8107 0.937607 16.5 0.937607H12.4922C12.1815 0.937607 11.9297 1.18945 11.9297 1.50011C11.9297 1.81077 12.1815 2.06261 12.4922 2.06261H15.142L9.35225 7.85236Z" fill="#0070D2"/>
</g>
</g>
</g>
<defs>
<clipPath id="clip0_337_27357">
<rect y="0.000106812" width="18" height="18" rx="5" fill="white"/>
</clipPath>
</defs>
</svg>
