<svg width="18" height="18" viewBox="0 0 18 18" fill="none" xmlns="http://www.w3.org/2000/svg">
<g id="Outline">
<path id="Vector" fill-rule="evenodd" clip-rule="evenodd" d="M7.45769 2.43762H10.5423C11.9206 2.43761 13.0124 2.4376 13.8668 2.55247C14.7461 2.67069 15.4578 2.91978 16.0191 3.48105C16.5803 4.04233 16.8294 4.75404 16.9476 5.63336C17.0625 6.48777 17.0625 7.57949 17.0625 8.95781V9.04243C17.0625 10.4208 17.0625 11.5125 16.9476 12.3669C16.8294 13.2462 16.5803 13.9579 16.0191 14.5192C15.4578 15.0805 14.7461 15.3295 13.8668 15.4478C13.0124 15.5626 11.9206 15.5626 10.5423 15.5626H7.45769C6.07937 15.5626 4.98764 15.5626 4.13323 15.4478C3.25392 15.3295 2.54221 15.0805 1.98093 14.5192C1.41966 13.9579 1.17057 13.2462 1.05235 12.3669C0.937479 11.5125 0.937488 10.4208 0.9375 9.04244V8.95781C0.937488 7.57949 0.937479 6.48777 1.05235 5.63336C1.17057 4.75404 1.41966 4.04233 1.98093 3.48105C2.54221 2.91978 3.25392 2.67069 4.13323 2.55247C4.98764 2.4376 6.07937 2.43761 7.45769 2.43762ZM4.28314 3.66744C3.52857 3.76889 3.09384 3.95914 2.77643 4.27655C2.45902 4.59396 2.26877 5.02869 2.16732 5.78326C2.0637 6.55401 2.0625 7.57001 2.0625 9.00012C2.0625 10.4302 2.0637 11.4462 2.16732 12.217C2.26877 12.9716 2.45902 13.4063 2.77643 13.7237C3.09384 14.0411 3.52857 14.2314 4.28314 14.3328C5.05388 14.4364 6.06988 14.4376 7.5 14.4376H10.5C11.9301 14.4376 12.9461 14.4364 13.7169 14.3328C14.4714 14.2314 14.9062 14.0411 15.2236 13.7237C15.541 13.4063 15.7312 12.9716 15.8327 12.217C15.9363 11.4462 15.9375 10.4302 15.9375 9.00012C15.9375 7.57001 15.9363 6.55401 15.8327 5.78326C15.7312 5.02869 15.541 4.59396 15.2236 4.27655C14.9062 3.95914 14.4714 3.76889 13.7169 3.66744C12.9461 3.56382 11.9301 3.56262 10.5 3.56262H7.5C6.06989 3.56262 5.05389 3.56382 4.28314 3.66744ZM4.06788 5.64002C4.26676 5.40136 4.62145 5.36912 4.8601 5.568L6.47928 6.91731C7.179 7.50041 7.6648 7.90393 8.07494 8.16772C8.47196 8.42307 8.7412 8.50878 9 8.50878C9.2588 8.50878 9.52804 8.42307 9.92506 8.16772C10.3352 7.90393 10.821 7.50041 11.5207 6.91731L13.1399 5.568C13.3786 5.36912 13.7332 5.40136 13.9321 5.64002C14.131 5.87867 14.0988 6.23337 13.8601 6.43225L12.2127 7.80505C11.548 8.35905 11.0092 8.80806 10.5336 9.11392C10.0382 9.43252 9.55581 9.63378 9 9.63378C8.44419 9.63378 7.96176 9.43252 7.46638 9.11392C6.99084 8.80806 6.45204 8.35905 5.78727 7.80506L4.1399 6.43225C3.90124 6.23337 3.869 5.87867 4.06788 5.64002Z" fill="#66727A"/>
</g>
</svg>
