<svg width="20" height="20" viewBox="0 0 20 20" fill="none" xmlns="http://www.w3.org/2000/svg">
<g id="Outline">
<path id="Vector" fill-rule="evenodd" clip-rule="evenodd" d="M9.99981 1.04175C6.43297 1.04175 3.54148 3.93324 3.54148 7.50008V8.08683C3.54148 8.6676 3.36957 9.23537 3.04742 9.7186L2.09025 11.1544C0.979333 12.8207 1.82742 15.0857 3.75958 15.6127C4.38926 15.7844 5.02425 15.9297 5.66293 16.0485L5.66451 16.0528C6.30534 17.7627 8.0181 18.9584 9.99975 18.9584C11.9814 18.9584 13.6942 17.7627 14.335 16.0528L14.3366 16.0485C14.9753 15.9297 15.6103 15.7844 16.24 15.6127C18.1722 15.0857 19.0203 12.8207 17.9094 11.1544L16.9522 9.7186C16.6301 9.23538 16.4581 8.6676 16.4581 8.08683V7.50008C16.4581 3.93324 13.5666 1.04175 9.99981 1.04175ZM12.8135 16.2809C10.9444 16.5042 9.05514 16.5042 7.18602 16.2809C7.77848 17.1321 8.80895 17.7084 9.99975 17.7084C11.1906 17.7084 12.221 17.1322 12.8135 16.2809ZM4.79148 7.50008C4.79148 4.6236 7.12333 2.29175 9.99981 2.29175C12.8763 2.29175 15.2081 4.6236 15.2081 7.50008V8.08683C15.2081 8.91438 15.4531 9.72342 15.9121 10.412L16.8693 11.8477C17.507 12.8042 17.0202 14.1043 15.9111 14.4067C12.0409 15.4623 7.95869 15.4623 4.08848 14.4067C2.97945 14.1043 2.49266 12.8042 3.13031 11.8477L4.08748 10.412C4.54652 9.72342 4.79148 8.91438 4.79148 8.08683V7.50008Z" fill="#232930"/>
</g>
</svg>
