<svg width="18" height="18" viewBox="0 0 18 18" fill="none" xmlns="http://www.w3.org/2000/svg">
<g id="Outline" clip-path="url(#clip0_336_35808)">
<g id="Vector">
<path fill-rule="evenodd" clip-rule="evenodd" d="M9.0001 0.937622C7.03259 0.937622 5.4376 2.53261 5.4376 4.50012C5.4376 6.46764 7.03259 8.06262 9.0001 8.06262C10.9676 8.06262 12.5626 6.46764 12.5626 4.50012C12.5626 2.53261 10.9676 0.937622 9.0001 0.937622ZM6.5626 4.50012C6.5626 3.15393 7.65391 2.06262 9.0001 2.06262C10.3463 2.06262 11.4376 3.15393 11.4376 4.50012C11.4376 5.84632 10.3463 6.93762 9.0001 6.93762C7.65391 6.93762 6.5626 5.84632 6.5626 4.50012Z" fill="#66727A"/>
<path fill-rule="evenodd" clip-rule="evenodd" d="M9.0001 9.18762C7.26494 9.18762 5.66629 9.58203 4.48169 10.2484C3.31471 10.9048 2.4376 11.8997 2.4376 13.1251L2.43755 13.2016C2.4367 14.073 2.43564 15.1666 3.39491 15.9478C3.86701 16.3322 4.52746 16.6056 5.41976 16.7862C6.31455 16.9673 7.48077 17.0626 9.0001 17.0626C10.5194 17.0626 11.6857 16.9673 12.5804 16.7862C13.4727 16.6056 14.1332 16.3322 14.6053 15.9478C15.5646 15.1666 15.5635 14.073 15.5626 13.2016L15.5626 13.1251C15.5626 11.8997 14.6855 10.9048 13.5185 10.2484C12.3339 9.58203 10.7353 9.18762 9.0001 9.18762ZM3.5626 13.1251C3.5626 12.4866 4.02863 11.794 5.03323 11.2289C6.0202 10.6737 7.42156 10.3126 9.0001 10.3126C10.5786 10.3126 11.98 10.6737 12.967 11.2289C13.9716 11.794 14.4376 12.4866 14.4376 13.1251C14.4376 14.106 14.4074 14.6581 13.8949 15.0754C13.617 15.3017 13.1525 15.5226 12.3573 15.6836C11.5645 15.844 10.4808 15.9376 9.0001 15.9376C7.51943 15.9376 6.43565 15.844 5.64294 15.6836C4.84774 15.5226 4.38319 15.3017 4.10529 15.0754C3.59284 14.6581 3.5626 14.106 3.5626 13.1251Z" fill="#66727A"/>
</g>
</g>
<defs>
<clipPath id="clip0_336_35808">
<rect width="18" height="18" fill="white"/>
</clipPath>
</defs>
</svg>
