<svg width="18" height="18" viewBox="0 0 18 18" fill="none" xmlns="http://www.w3.org/2000/svg">
<g id="Outline" clip-path="url(#clip0_346_96931)">
<g id="Vector">
<path fill-rule="evenodd" clip-rule="evenodd" d="M3.12132 1.69865C2.33554 1.69865 1.69853 2.33566 1.69853 3.12145V14.5038C1.69853 15.2896 2.33553 15.9266 3.12132 15.9266H14.5037C15.2895 15.9266 15.9265 15.2896 15.9265 14.5038V6.75282C15.9265 6.37546 15.7766 6.01359 15.5097 5.74676L11.8784 2.11539C11.6115 1.84855 11.2496 1.69865 10.8723 1.69865H3.12132ZM0.75 3.12145C0.75 1.8118 1.81168 0.750122 3.12132 0.750122H10.8723C11.5012 0.750122 12.1044 0.999959 12.5491 1.44466L16.1804 5.07603C16.6252 5.52075 16.875 6.12391 16.875 6.75282V14.5038C16.875 15.8135 15.8133 16.8751 14.5037 16.8751H3.12132C1.81168 16.8751 0.75 15.8135 0.75 14.5038V3.12145Z" fill="#66727A"/>
<path fill-rule="evenodd" clip-rule="evenodd" d="M4.54412 1.22439C4.54412 0.962458 4.75645 0.750122 5.01838 0.750122H9.76103C10.023 0.750122 10.2353 0.962458 10.2353 1.22439V4.06997C10.2353 4.85575 9.59831 5.49277 8.8125 5.49277H5.96691C5.18113 5.49277 4.54412 4.85576 4.54412 4.06997V1.22439ZM5.49265 1.69865V4.06997C5.49265 4.3319 5.70499 4.54424 5.96691 4.54424H8.8125C9.07444 4.54424 9.28677 4.33191 9.28677 4.06997V1.69865H5.49265Z" fill="#66727A"/>
<path fill-rule="evenodd" clip-rule="evenodd" d="M5.96691 10.2354C5.18112 10.2354 4.54412 10.8724 4.54412 11.6582V15.9266H13.0809V11.6582C13.0809 10.8724 12.4439 10.2354 11.6581 10.2354H5.96691ZM3.59559 11.6582C3.59559 10.3485 4.65727 9.28689 5.96691 9.28689H11.6581C12.9678 9.28689 14.0294 10.3485 14.0294 11.6582V16.4009C14.0294 16.6628 13.8171 16.8751 13.5551 16.8751H4.06985C3.80792 16.8751 3.59559 16.6628 3.59559 16.4009V11.6582Z" fill="#66727A"/>
</g>
</g>
<defs>
<clipPath id="clip0_346_96931">
<rect width="18" height="18" fill="white"/>
</clipPath>
</defs>
</svg>
