<svg width="18" height="18" viewBox="0 0 18 18" fill="none" xmlns="http://www.w3.org/2000/svg">
<g id="Outline">
<path id="Vector" fill-rule="evenodd" clip-rule="evenodd" d="M3.71475 1.68762C3.72646 1.68762 3.73821 1.68762 3.75 1.68762L14.2853 1.68762C14.7855 1.6876 15.2131 1.68758 15.5548 1.73069C15.9173 1.77641 16.2676 1.87909 16.5554 2.14905C16.8482 2.42378 16.9645 2.76654 17.0156 3.12316C17.0626 3.45076 17.0625 3.8581 17.0625 4.32281L17.0625 4.90521C17.0625 5.27159 17.0625 5.58833 17.0352 5.85245C17.0057 6.13667 16.9414 6.40332 16.7869 6.65932C16.6336 6.9134 16.4271 7.09782 16.1891 7.26315C15.9649 7.41889 15.6784 7.58014 15.3415 7.76978L13.1347 9.01208C12.6323 9.29486 12.4574 9.39669 12.3406 9.49807C12.0724 9.7309 11.9189 9.98924 11.8467 10.3129C11.8158 10.4513 11.8125 10.6255 11.8125 11.1548L11.8125 13.2039C11.8125 13.8798 11.8126 14.4536 11.743 14.8948C11.6691 15.3639 11.4974 15.8138 11.0473 16.0953C10.6076 16.3704 10.1231 16.3451 9.65235 16.2333C9.19894 16.1256 8.6402 15.9072 7.96977 15.6451L7.90461 15.6196C7.59057 15.4968 7.31558 15.3894 7.09788 15.2769C6.86392 15.1561 6.64665 15.0058 6.48042 14.7719C6.31231 14.5353 6.24491 14.2817 6.21486 14.0224C6.18746 13.7859 6.18748 13.5021 6.1875 13.1856L6.1875 11.1548C6.1875 10.6255 6.18416 10.4513 6.15331 10.3129C6.08115 9.98924 5.92757 9.7309 5.65938 9.49807C5.5426 9.39669 5.36769 9.29486 4.86535 9.01208L2.65853 7.76979C2.32162 7.58014 2.03515 7.41889 1.81094 7.26315C1.57293 7.09782 1.36643 6.9134 1.2131 6.65932C1.05861 6.40332 0.99428 6.13667 0.964836 5.85245C0.937473 5.58833 0.937487 5.27159 0.937503 4.90521L0.937504 4.36112C0.937504 4.3483 0.937503 4.33553 0.937502 4.3228C0.937467 3.85809 0.937436 3.45075 0.98438 3.12316C1.03548 2.76654 1.15182 2.42378 1.44463 2.14906C1.73237 1.87909 2.08271 1.77641 2.44518 1.73069C2.78694 1.68758 3.21455 1.6876 3.71475 1.68762ZM2.58597 2.84685C2.33573 2.87841 2.25615 2.9303 2.21438 2.96949C2.17769 3.00391 2.12928 3.06451 2.098 3.28274C2.06386 3.52103 2.0625 3.84664 2.0625 4.36112V4.87848C2.0625 5.27914 2.0632 5.5372 2.08385 5.73653C2.10308 5.92216 2.13609 6.01143 2.1763 6.07806C2.21768 6.14661 2.28638 6.22362 2.45275 6.33919C2.62804 6.46095 2.86752 6.59643 3.23245 6.80186L5.41722 8.03174C5.43768 8.04326 5.45783 8.05459 5.47768 8.06576C5.89671 8.3015 6.18209 8.46205 6.3969 8.64854C6.84042 9.03359 7.12498 9.50128 7.25135 10.0681C7.31277 10.3436 7.31267 10.6525 7.31252 11.0885C7.31251 11.1103 7.3125 11.1324 7.3125 11.1548V13.1569C7.3125 13.511 7.31338 13.7289 7.33238 13.8928C7.34957 14.0411 7.37664 14.0909 7.39748 14.1203C7.42019 14.1522 7.46518 14.2005 7.61402 14.2773C7.77333 14.3596 7.99281 14.4462 8.33942 14.5817C9.06018 14.8634 9.54498 15.0515 9.91232 15.1388C10.2713 15.224 10.3896 15.1798 10.4508 15.1415C10.5017 15.1097 10.5805 15.0449 10.6317 14.7196C10.6858 14.3766 10.6875 13.8927 10.6875 13.1569V11.1548C10.6875 11.1324 10.6875 11.1103 10.6875 11.0885C10.6873 10.6525 10.6872 10.3436 10.7487 10.0681C10.875 9.50128 11.1596 9.03359 11.6031 8.64855C11.8179 8.46206 12.1033 8.30151 12.5223 8.06577C12.5422 8.0546 12.5623 8.04326 12.5828 8.03174L14.7676 6.80186C15.1325 6.59643 15.372 6.46095 15.5473 6.33919C15.7136 6.22362 15.7823 6.14661 15.8237 6.07806C15.8639 6.01143 15.8969 5.92216 15.9162 5.73653C15.9368 5.5372 15.9375 5.27914 15.9375 4.87848V4.36112C15.9375 3.84664 15.9361 3.52103 15.902 3.28274C15.8707 3.06451 15.8223 3.00391 15.7856 2.96949C15.7439 2.9303 15.6643 2.87841 15.414 2.84685C15.1511 2.81368 14.7953 2.81262 14.25 2.81262H3.75C3.20473 2.81262 2.84891 2.81368 2.58597 2.84685Z" fill="#66727A"/>
</g>
</svg>
