<svg width="18" height="18" viewBox="0 0 18 18" fill="none" xmlns="http://www.w3.org/2000/svg">
<g id="Outline" clip-path="url(#clip0_346_96927)">
<path id="Vector" fill-rule="evenodd" clip-rule="evenodd" d="M8.625 2.06262C5.00063 2.06262 2.0625 5.00075 2.0625 8.62512C2.0625 12.2495 5.00063 15.1876 8.625 15.1876C12.2494 15.1876 15.1875 12.2495 15.1875 8.62512C15.1875 5.00075 12.2494 2.06262 8.625 2.06262ZM0.9375 8.62512C0.9375 4.37943 4.37931 0.937622 8.625 0.937622C12.8707 0.937622 16.3125 4.37943 16.3125 8.62512C16.3125 10.5455 15.6083 12.3014 14.4441 13.6488L16.8977 16.1024C17.1174 16.322 17.1174 16.6782 16.8977 16.8979C16.6781 17.1175 16.3219 17.1175 16.1023 16.8979L13.6487 14.4443C12.3013 15.6085 10.5454 16.3126 8.625 16.3126C4.37931 16.3126 0.9375 12.8708 0.9375 8.62512ZM6.4117 6.13958C6.9266 5.48385 7.72661 5.06262 8.625 5.06262C9.52339 5.06262 10.3234 5.48385 10.8383 6.13958L11.3734 5.87201C11.6513 5.73308 11.9892 5.8457 12.1281 6.12356C12.267 6.40143 12.1544 6.73931 11.8766 6.87824L11.3419 7.14554C11.4043 7.37822 11.4375 7.62279 11.4375 7.87512V8.06262H12C12.3107 8.06262 12.5625 8.31446 12.5625 8.62512C12.5625 8.93578 12.3107 9.18762 12 9.18762H11.4375V9.37512C11.4375 9.62746 11.4043 9.87203 11.3419 10.1047L11.8766 10.372C12.1544 10.5109 12.267 10.8488 12.1281 11.1267C11.9892 11.4045 11.6513 11.5172 11.3734 11.3782L10.8383 11.1107C10.3234 11.7664 9.52339 12.1876 8.625 12.1876C7.72661 12.1876 6.9266 11.7664 6.4117 11.1107L5.87656 11.3782C5.59869 11.5172 5.26082 11.4045 5.12188 11.1267C4.98295 10.8488 5.09558 10.5109 5.37344 10.372L5.90805 10.1047C5.84573 9.87203 5.8125 9.62746 5.8125 9.37512V9.18762H5.25C4.93934 9.18762 4.6875 8.93578 4.6875 8.62512C4.6875 8.31446 4.93934 8.06262 5.25 8.06262H5.8125V7.87512C5.8125 7.62279 5.84573 7.37822 5.90805 7.14554L5.37344 6.87824C5.09558 6.73931 4.98295 6.40143 5.12188 6.12356C5.26082 5.8457 5.59869 5.73308 5.87656 5.87201L6.4117 6.13958ZM6.9375 8.43762V9.37512C6.9375 10.1099 7.40708 10.7349 8.0625 10.9666V8.43762H6.9375ZM9.1875 8.43762V10.9666C9.84292 10.7349 10.3125 10.1099 10.3125 9.37512V8.43762H9.1875ZM10.2165 7.31262H7.03352C7.26518 6.6572 7.89025 6.18762 8.625 6.18762C9.35975 6.18762 9.98482 6.6572 10.2165 7.31262Z" fill="#66727A"/>
</g>
<defs>
<clipPath id="clip0_346_96927">
<rect width="18" height="18" fill="white"/>
</clipPath>
</defs>
</svg>
