<svg width="18" height="18" viewBox="0 0 18 18" fill="none" xmlns="http://www.w3.org/2000/svg">
<g id="Outline" clip-path="url(#clip0_336_35797)">
<path id="Vector" fill-rule="evenodd" clip-rule="evenodd" d="M4.29951 1.53237C5.21251 0.624559 6.71579 0.78615 7.48028 1.80734L8.42602 3.07064C9.04806 3.90155 8.99317 5.06286 8.25479 5.79705L8.07571 5.97511C8.06789 5.99783 8.04892 6.06924 8.06998 6.20495C8.11739 6.51057 8.3726 7.15887 9.44399 8.22418C10.515 9.28911 11.1679 9.54407 11.4779 9.59161C11.6183 9.61316 11.6918 9.59307 11.7145 9.58515L12.0205 9.28088C12.677 8.6282 13.6856 8.50619 14.4983 8.94799L15.9312 9.72692C17.1582 10.3939 17.4681 12.0617 16.4629 13.0612L15.3975 14.1206C15.0618 14.4544 14.6104 14.7327 14.0595 14.7841C12.7027 14.9105 9.53902 14.7491 6.21495 11.4439C3.11151 8.35812 2.51596 5.66712 2.44061 4.34125L3.0022 4.30934L2.44061 4.34125C2.40251 3.67082 2.71932 3.10359 3.12231 2.70289L4.29951 1.53237ZM6.57968 2.48155C6.19971 1.97399 5.4915 1.93363 5.09274 2.33013L3.91554 3.50065C3.6681 3.74668 3.54905 4.01783 3.5638 4.27742C3.62367 5.33087 4.10464 7.75913 7.00817 10.6462C10.0543 13.675 12.8676 13.7653 13.955 13.6639C14.1772 13.6432 14.3981 13.5278 14.6043 13.3228L15.6697 12.2635C16.1028 11.8328 16.0072 11.0487 15.3939 10.7153L13.961 9.93639C13.5653 9.7213 13.1018 9.79226 12.8138 10.0786L12.4722 10.4183L12.0756 10.0194C12.4722 10.4183 12.4717 10.4188 12.4711 10.4193L12.47 10.4204L12.4677 10.4227L12.4629 10.4274L12.4519 10.4376C12.444 10.4448 12.435 10.4527 12.4248 10.4611C12.4044 10.478 12.3794 10.4971 12.3494 10.5171C12.2894 10.5574 12.2101 10.6011 12.1104 10.6382C11.9073 10.7139 11.6394 10.7545 11.3073 10.7036C10.6572 10.6039 9.79601 10.1607 8.65077 9.02194C7.5059 7.88358 7.05896 7.02638 6.95828 6.37742C6.9068 6.04558 6.94786 5.7776 7.02445 5.57431C7.06199 5.47468 7.10623 5.39546 7.14683 5.33554C7.16707 5.30566 7.18634 5.28068 7.20335 5.26038C7.21185 5.25024 7.2198 5.24125 7.22703 5.2334L7.23733 5.22246L7.24204 5.21761L7.24429 5.21535L7.24538 5.21425C7.24592 5.21371 7.24645 5.21318 7.64307 5.61206L7.24645 5.21318L7.46156 4.99929C7.78302 4.67967 7.82804 4.14908 7.52542 3.74485L6.57968 2.48155Z" fill="#66727A"/>
</g>
<defs>
<clipPath id="clip0_336_35797">
<rect width="18" height="18" fill="white"/>
</clipPath>
</defs>
</svg>
