<svg width="18" height="18" viewBox="0 0 18 18" fill="none" xmlns="http://www.w3.org/2000/svg">
<g id="Outline">
<path id="Vector" fill-rule="evenodd" clip-rule="evenodd" d="M4.5 2.8125C3.98223 2.8125 3.5625 3.23223 3.5625 3.75C3.5625 4.26777 3.98223 4.6875 4.5 4.6875C5.01777 4.6875 5.4375 4.26777 5.4375 3.75C5.4375 3.23223 5.01777 2.8125 4.5 2.8125ZM2.4375 3.75C2.4375 2.61091 3.36091 1.6875 4.5 1.6875C5.44408 1.6875 6.24001 2.32181 6.48486 3.1875H12.375C14.1354 3.1875 15.5625 4.61459 15.5625 6.375C15.5625 8.13541 14.1354 9.5625 12.375 9.5625H5.625C4.48591 9.5625 3.5625 10.4859 3.5625 11.625C3.5625 12.7641 4.48591 13.6875 5.625 13.6875H13.642L13.1023 13.1477C12.8826 12.9281 12.8826 12.5719 13.1023 12.3523C13.3219 12.1326 13.6781 12.1326 13.8977 12.3523L15.3977 13.8523C15.6174 14.0719 15.6174 14.4281 15.3977 14.6477L13.8977 16.1477C13.6781 16.3674 13.3219 16.3674 13.1023 16.1477C12.8826 15.9281 12.8826 15.5719 13.1023 15.3523L13.642 14.8125H5.625C3.86459 14.8125 2.4375 13.3854 2.4375 11.625C2.4375 9.86459 3.86459 8.4375 5.625 8.4375H12.375C13.5141 8.4375 14.4375 7.51409 14.4375 6.375C14.4375 5.23591 13.5141 4.3125 12.375 4.3125H6.48486C6.24001 5.17819 5.44408 5.8125 4.5 5.8125C3.36091 5.8125 2.4375 4.88909 2.4375 3.75Z" fill="#232930"/>
</g>
</svg>
