<svg width="152" height="37" viewBox="0 0 152 37" fill="none" xmlns="http://www.w3.org/2000/svg">
<g id="TRADEFULL_Logo_Tagline_RGB 2" clip-path="url(#clip0_142_2229)">
<g id="g8">
<g id="g10">
<g id="g46">
<g id="Clip path group">
<mask id="mask0_142_2229" style="mask-type:luminance" maskUnits="userSpaceOnUse" x="0" y="8" width="152" height="22">
<g id="clipPath52">
<path id="path50" d="M137.751 27.4952V8.33459H143.06V24.4827H150.215C150.882 24.4827 151.423 25.0265 151.423 25.6972V28.8136H139.063C138.339 28.8136 137.751 28.2233 137.751 27.4952ZM122.895 27.4952V8.33459H128.204V24.4827H135.396C136.043 24.4827 136.567 25.0098 136.567 25.6597V28.8136H124.207C123.482 28.8136 122.895 28.2233 122.895 27.4952ZM104.586 21.1842V8.33459H109.924V21.4423C109.924 22.7906 110.352 24.6547 112.978 24.6547C115.632 24.6547 116.089 22.7906 116.089 21.4423V8.33459H121.398V21.1842C121.398 26.06 118.202 29.1292 112.978 29.1292C107.783 29.1292 104.586 26.06 104.586 21.1842ZM94.8986 12.7232V16.2795H102.263V20.6966H94.8986V28.8136H89.5609V10.3712C89.5609 9.19524 90.4458 8.33459 91.6447 8.33459H103.347V12.7232H94.8986ZM78.9426 12.7517V16.2795H86.9347V20.6966H78.9426V24.3966H86.4658C87.1187 24.3966 87.6481 24.9287 87.6481 25.5849V28.8136H73.6049V10.3712C73.6049 9.19524 74.4898 8.33459 75.6887 8.33459H87.9051V12.7517H78.9426ZM62.0546 24.4827H59.343V12.6657H62.2828C65.9649 12.6657 67.278 15.8207 67.278 18.4882C67.278 21.5572 65.5653 24.4827 62.0546 24.4827ZM62.5398 8.33459H56.1461C54.9186 8.33459 54.0053 9.19524 54.0053 10.3712V28.8136H62.397C69.39 28.8136 72.5299 23.5935 72.5299 18.4882C72.5299 13.2393 69.2188 8.33459 62.5398 8.33459ZM41.3415 20.5533L43.311 14.4153L45.252 20.5533H41.3415ZM46.4793 9.79761C46.0513 8.65036 44.7954 8.19129 43.311 8.19129C41.7981 8.19129 40.571 8.65036 40.1712 9.79761L33.321 28.8136H38.7157L39.943 24.9703H46.6791L47.9064 28.8136H53.3011L46.4793 9.79761ZM25.2944 17.5417H22.2974V12.6657H25.323C26.9786 12.6657 27.692 13.6982 27.692 15.0462C27.692 16.796 26.893 17.5417 25.2944 17.5417ZM29.4986 21.1269C32.2386 20.1804 33.5517 18.0866 33.5517 15.0177C33.5517 11.0309 31.0115 8.33459 26.3875 8.33459H19.0226C18.3136 8.33459 17.7388 8.91223 17.7388 9.6245V28.8136H22.848V21.7006H24.361L28.3283 28.8136H34.1228L29.4986 21.1269ZM16.2981 12.9424H10.8463V28.8136H5.50871V12.9424H1.04222C0.466598 12.9424 0 12.4736 0 11.8951V8.33459H15.2118C15.8117 8.33459 16.2981 8.82346 16.2981 9.42625V12.9424Z" fill="white"/>
</g>
</mask>
<g mask="url(#mask0_142_2229)">
<g id="g48">
<path id="path64" d="M137.751 27.4952V8.33459H143.06V24.4827H150.215C150.882 24.4827 151.423 25.0265 151.423 25.6972V28.8136H139.063C138.339 28.8136 137.751 28.2233 137.751 27.4952ZM122.895 27.4952V8.33459H128.204V24.4827H135.396C136.043 24.4827 136.567 25.0098 136.567 25.6597V28.8136H124.207C123.482 28.8136 122.895 28.2233 122.895 27.4952ZM104.586 21.1842V8.33459H109.924V21.4423C109.924 22.7906 110.352 24.6547 112.978 24.6547C115.632 24.6547 116.089 22.7906 116.089 21.4423V8.33459H121.398V21.1842C121.398 26.06 118.202 29.1292 112.978 29.1292C107.783 29.1292 104.586 26.06 104.586 21.1842ZM94.8986 12.7232V16.2795H102.263V20.6966H94.8986V28.8136H89.5609V10.3712C89.5609 9.19524 90.4458 8.33459 91.6447 8.33459H103.347V12.7232H94.8986ZM78.9426 12.7517V16.2795H86.9347V20.6966H78.9426V24.3966H86.4658C87.1187 24.3966 87.6481 24.9287 87.6481 25.5849V28.8136H73.6049V10.3712C73.6049 9.19524 74.4898 8.33459 75.6887 8.33459H87.9051V12.7517H78.9426ZM62.0546 24.4827H59.343V12.6657H62.2828C65.9649 12.6657 67.278 15.8207 67.278 18.4882C67.278 21.5572 65.5653 24.4827 62.0546 24.4827ZM62.5398 8.33459H56.1461C54.9186 8.33459 54.0053 9.19524 54.0053 10.3712V28.8136H62.397C69.39 28.8136 72.5299 23.5935 72.5299 18.4882C72.5299 13.2393 69.2188 8.33459 62.5398 8.33459ZM41.3415 20.5533L43.311 14.4153L45.252 20.5533H41.3415ZM46.4793 9.79761C46.0513 8.65036 44.7954 8.19129 43.311 8.19129C41.7981 8.19129 40.571 8.65036 40.1712 9.79761L33.321 28.8136H38.7157L39.943 24.9703H46.6791L47.9064 28.8136H53.3011L46.4793 9.79761ZM25.2944 17.5417H22.2974V12.6657H25.323C26.9786 12.6657 27.692 13.6982 27.692 15.0462C27.692 16.796 26.893 17.5417 25.2944 17.5417ZM29.4986 21.1269C32.2386 20.1804 33.5517 18.0866 33.5517 15.0177C33.5517 11.0309 31.0115 8.33459 26.3875 8.33459H19.0226C18.3136 8.33459 17.7388 8.91223 17.7388 9.6245V28.8136H22.848V21.7006H24.361L28.3283 28.8136H34.1228L29.4986 21.1269ZM16.2981 12.9424H10.8463V28.8136H5.50871V12.9424H1.04222C0.466598 12.9424 0 12.4736 0 11.8951V8.33459H15.2118C15.8117 8.33459 16.2981 8.82346 16.2981 9.42625V12.9424Z" fill="url(#paint0_linear_142_2229)"/>
</g>
</g>
</g>
</g>
<path id="path66" d="M149.608 5.74262C149.155 5.74262 148.787 6.11186 148.787 6.56734V6.69584C148.787 7.1306 148.436 7.48293 148.004 7.48293H145.289C145.105 7.48293 144.956 7.63279 144.956 7.81794V11.1544C144.956 11.5321 145.41 11.7211 145.676 11.4541L147.886 9.23318C148.194 8.92333 148.694 8.92333 149.003 9.23318L149.708 9.94228C149.974 10.2094 150.429 10.0203 150.429 9.64258V6.56734C150.429 6.11186 150.061 5.74262 149.608 5.74262ZM149.614 5.41882C150.064 5.41882 150.429 5.05233 150.429 4.60045V2.58368V1.35823C150.429 1.12405 150.24 0.934254 150.007 0.934254H148.787H146.78C146.33 0.934254 145.966 1.30054 145.966 1.75242C145.966 2.2043 146.33 2.57058 146.78 2.57058H148.017C148.449 2.57079 148.8 2.92312 148.8 3.35767V4.60045C148.8 5.05233 149.165 5.41882 149.614 5.41882ZM148.136 6.27102C148.136 6.57537 147.89 6.82223 147.587 6.82223H144.569V3.78947C144.569 3.48512 144.815 3.23826 145.118 3.23826H145.331H148.136V6.0567V6.27102ZM145.643 1.75897C145.643 1.3035 145.276 0.934254 144.823 0.934254H141.762C141.386 0.934254 141.198 1.39079 141.464 1.65794L142.17 2.36704C142.478 2.67689 142.478 3.17929 142.17 3.48914L139.96 5.71007C139.694 5.97702 139.882 6.43376 140.258 6.43376H143.578C143.762 6.43376 143.912 6.2837 143.912 6.09855V3.37057C143.912 2.93602 144.262 2.58368 144.695 2.58368H144.823C145.276 2.58368 145.643 2.21444 145.643 1.75897Z" fill="#4FC5CE"/>
</g>
</g>
</g>
<defs>
<linearGradient id="paint0_linear_142_2229" x1="0" y1="18.6602" x2="151.423" y2="18.6602" gradientUnits="userSpaceOnUse">
<stop stop-color="#1C274B"/>
<stop offset="0.478911" stop-color="#1C274B"/>
<stop offset="0.851" stop-color="#4FC5CE"/>
<stop offset="1" stop-color="#4FC5CE"/>
</linearGradient>
<clipPath id="clip0_142_2229">
<rect width="151.439" height="35.9772" fill="white" transform="translate(0 0.934814)"/>
</clipPath>
</defs>
</svg>
